<svg width="119" height="1640" viewBox="0 0 119 1640" fill="none" xmlns="http://www.w3.org/2000/svg">
<path d="M60 0V1640" stroke="#FF723A" stroke-width="10"/>
<circle cx="59.5" cy="819.5" r="54.5" fill="#FF723A" stroke="#FF723A" stroke-width="10"/>
<path d="M51.6033 799.063C51.2625 798.719 50.8569 798.447 50.4101 798.261C49.9633 798.074 49.484 797.979 49 797.979C48.5159 797.979 48.0367 798.074 47.5899 798.261C47.1431 798.447 46.7375 798.719 46.3967 799.063L28.0633 817.396C27.7197 817.737 27.4469 818.143 27.2607 818.59C27.0746 819.036 26.9787 819.516 26.9787 820C26.9787 820.484 27.0746 820.963 27.2607 821.41C27.4469 821.857 27.7197 822.262 28.0633 822.603L46.3967 840.936C46.7375 841.28 47.1431 841.553 47.5899 841.739C48.0367 841.925 48.5159 842.021 49 842.021C49.484 842.021 49.9633 841.925 50.4101 841.739C50.8569 841.553 51.2625 841.28 51.6033 840.936C51.947 840.596 52.2198 840.19 52.4059 839.743C52.5921 839.296 52.6879 838.817 52.6879 838.333C52.6879 837.849 52.5921 837.37 52.4059 836.923C52.2198 836.476 51.947 836.071 51.6033 835.73L35.8367 820L51.6033 804.27C51.947 803.929 52.2198 803.523 52.4059 803.077C52.5921 802.63 52.6879 802.15 52.6879 801.666C52.6879 801.182 52.5921 800.703 52.4059 800.256C52.2198 799.81 51.947 799.404 51.6033 799.063ZM91.9367 817.396L73.6033 799.063C73.2614 798.721 72.8556 798.45 72.4089 798.265C71.9622 798.08 71.4835 797.985 71 797.985C70.0235 797.985 69.0871 798.373 68.3967 799.063C68.0548 799.405 67.7836 799.811 67.5986 800.258C67.4135 800.704 67.3183 801.183 67.3183 801.666C67.3183 802.643 67.7062 803.579 68.3967 804.27L84.1633 820L68.3967 835.73C68.053 836.071 67.7802 836.476 67.5941 836.923C67.4079 837.37 67.3121 837.849 67.3121 838.333C67.3121 838.817 67.4079 839.296 67.5941 839.743C67.7802 840.19 68.053 840.596 68.3967 840.936C68.7375 841.28 69.1431 841.553 69.5899 841.739C70.0367 841.925 70.5159 842.021 71 842.021C71.484 842.021 71.9633 841.925 72.4101 841.739C72.8569 841.553 73.2625 841.28 73.6033 840.936L91.9367 822.603C92.2803 822.262 92.5531 821.857 92.7393 821.41C92.9254 820.963 93.0212 820.484 93.0212 820C93.0212 819.516 92.9254 819.036 92.7393 818.59C92.5531 818.143 92.2803 817.737 91.9367 817.396Z" fill="white"/>
</svg>
